<?xml version="1.0" encoding="UTF-8"?>
<svg xmlns="http://www.w3.org/2000/svg" xmlns:xlink="http://www.w3.org/1999/xlink" viewBox="0 0 800 800">
  <defs>
    <style>
      .cls-1 {
        fill: url(#linear-gradient-8);
      }

      .cls-2 {
        fill: url(#linear-gradient-7);
      }

      .cls-3 {
        fill: url(#linear-gradient-5);
      }

      .cls-4 {
        fill: url(#linear-gradient-6);
      }

      .cls-5 {
        fill: url(#linear-gradient-9);
      }

      .cls-6 {
        fill: url(#linear-gradient-4);
      }

      .cls-7 {
        fill: url(#linear-gradient-3);
      }

      .cls-8 {
        fill: url(#linear-gradient-2);
      }

      .cls-9 {
        fill: url(#radial-gradient-5);
      }

      .cls-9, .cls-10, .cls-11, .cls-12, .cls-13 {
        mix-blend-mode: color-dodge;
      }

      .cls-10 {
        fill: url(#radial-gradient-4);
      }

      .cls-11 {
        fill: url(#radial-gradient-3);
      }

      .cls-12 {
        fill: url(#radial-gradient-2);
      }

      .cls-14 {
        fill: url(#linear-gradient);
      }

      .cls-15 {
        isolation: isolate;
      }

      .cls-13 {
        fill: url(#radial-gradient);
      }

      .cls-16 {
        fill: url(#linear-gradient-10);
      }

      .cls-17 {
        fill: url(#linear-gradient-11);
      }
    </style>
    <linearGradient id="linear-gradient" x1="553.36" y1="252.2" x2="598.35" y2="368.24" gradientUnits="userSpaceOnUse">
      <stop offset="0" stop-color="#d69b12"/>
      <stop offset="1" stop-color="#fee227"/>
    </linearGradient>
    <linearGradient id="linear-gradient-2" x1="637.52" y1="484.67" x2="598.73" y2="369.3" gradientUnits="userSpaceOnUse">
      <stop offset="0" stop-color="#b56101"/>
      <stop offset=".9" stop-color="#d79e13"/>
      <stop offset="1" stop-color="#fee227"/>
    </linearGradient>
    <linearGradient id="linear-gradient-3" x1="276.9" y1="224.22" x2="399.74" y2="224.22" gradientUnits="userSpaceOnUse">
      <stop offset="0" stop-color="#b56101"/>
      <stop offset="1" stop-color="#fee227"/>
    </linearGradient>
    <linearGradient id="linear-gradient-4" x1="522.69" y1="224.26" x2="399.22" y2="224.26" gradientUnits="userSpaceOnUse">
      <stop offset="0" stop-color="#b56101"/>
      <stop offset=".92" stop-color="#e1ae18"/>
      <stop offset="1" stop-color="#fee227"/>
    </linearGradient>
    <linearGradient id="linear-gradient-5" x1="622.46" y1="531.7" x2="521.9" y2="602.76" gradientUnits="userSpaceOnUse">
      <stop offset="0" stop-color="#b56101"/>
      <stop offset=".93" stop-color="#f9d924"/>
      <stop offset="1" stop-color="#fee227"/>
    </linearGradient>
    <linearGradient id="linear-gradient-6" x1="241.67" y1="251.95" x2="202.16" y2="365.74" xlink:href="#linear-gradient"/>
    <linearGradient id="linear-gradient-7" x1="163.87" y1="486.05" x2="201.25" y2="368.34" xlink:href="#linear-gradient-2"/>
    <linearGradient id="linear-gradient-8" x1="177.47" y1="530.79" x2="277.74" y2="602.88" gradientUnits="userSpaceOnUse">
      <stop offset="0" stop-color="#b56101"/>
      <stop offset="1" stop-color="#f5d323"/>
    </linearGradient>
    <linearGradient id="linear-gradient-9" x1="420.92" y1="672.75" x2="520.25" y2="603.9" gradientUnits="userSpaceOnUse">
      <stop offset="0" stop-color="#b56101"/>
      <stop offset=".91" stop-color="#dfab17"/>
      <stop offset="1" stop-color="#f2cd21"/>
    </linearGradient>
    <linearGradient id="linear-gradient-10" x1="254" y1="843.71" x2="154.15" y2="771.2" xlink:href="#linear-gradient-2"/>
    <linearGradient id="linear-gradient-11" x1="376.32" y1="674.44" x2="276.95" y2="602.28" xlink:href="#linear-gradient-2"/>
    <radialGradient id="radial-gradient" cx="451.87" cy="342.78" fx="451.87" fy="342.78" r="46.79" gradientTransform="translate(337.16 -1120.06) scale(.14 3.97)" gradientUnits="userSpaceOnUse">
      <stop offset="0" stop-color="#fff"/>
      <stop offset=".5" stop-color="#797979"/>
      <stop offset=".84" stop-color="#222"/>
      <stop offset="1" stop-color="#000"/>
    </radialGradient>
    <radialGradient id="radial-gradient-2" cx="1140.48" cy="329.15" fx="1140.48" fy="329.15" r="46.78" gradientTransform="translate(1783.98 -189.43) rotate(71.73) scale(.14 3.97) skewX(-.38)" gradientUnits="userSpaceOnUse">
      <stop offset="0" stop-color="#fff"/>
      <stop offset=".5" stop-color="#797979"/>
      <stop offset=".84" stop-color="#222"/>
      <stop offset="1" stop-color="#000"/>
    </radialGradient>
    <radialGradient id="radial-gradient-3" cx="1772.15" cy="314.51" fx="1772.15" fy="314.51" r="46.79" gradientTransform="translate(1456.43 1450.8) rotate(143.63) scale(.14 3.97) skewX(-.31)" xlink:href="#radial-gradient-2"/>
    <radialGradient id="radial-gradient-4" cx="1156.03" cy="298.52" fx="1156.03" fy="298.52" r="46.79" gradientTransform="translate(-546.26 1450.8) rotate(36.37) scale(.14 -3.97) skewX(-.31)" xlink:href="#radial-gradient-2"/>
    <radialGradient id="radial-gradient-5" cx="1531.53" cy="286.56" fx="1531.53" fy="286.56" r="46.79" gradientTransform="translate(-813.98 -172.46) rotate(107.37) scale(.14 -3.97) skewX(-.41)" xlink:href="#radial-gradient-2"/>
  </defs>
  <g class="cls-15">
    <g id="Layer_1">
      <g>
        <polygon class="cls-14" points="797.26 304.04 522.58 264.13 399.74 433.21 797.26 304.04"/>
        <polygon class="cls-8" points="797.26 304.04 399.74 433.21 598.5 497.79 797.26 304.04"/>
        <polygon class="cls-7" points="399.74 433.21 399.74 15.23 276.9 264.13 399.74 433.21 399.74 433.21"/>
        <polygon class="cls-6" points="399.85 15.23 399.74 15.46 399.74 433.21 399.74 433.21 399.8 433.28 522.69 264.13 399.85 15.23"/>
        <polygon class="cls-3" points="645.42 771.35 598.5 497.79 399.74 433.21 645.42 771.35"/>
        <polygon class="cls-4" points="2.37 304.14 277.05 264.23 399.89 433.3 2.37 304.14"/>
        <polygon class="cls-2" points="2.37 304.14 399.89 433.3 201.13 497.88 2.37 304.14"/>
        <polygon class="cls-1" points="154.21 771.46 201.13 497.88 399.89 433.3 154.21 771.46"/>
        <polygon class="cls-5" points="399.74 433.21 399.74 642.19 645.42 771.35 399.74 433.21"/>
        <g>
          <polygon class="cls-16" points="154.13 770.96 154.06 771.35 154.17 771.3 154.13 770.96"/>
          <polygon class="cls-17" points="154.24 771.26 399.74 642.19 399.74 433.37 154.24 771.26"/>
        </g>
        <path class="cls-13" d="M406.97,241.47c0,102.65-2.93,185.87-6.55,185.87s-6.55-83.21-6.55-185.87,2.93-185.87,6.55-185.87,6.55,83.21,6.55,185.87Z"/>
        <path class="cls-12" d="M594.51,377.97c-97.49,32.16-177.43,55.44-178.56,52-1.14-3.43,76.97-32.29,174.46-64.44,97.49-32.15,177.43-55.43,178.57-52,1.13,3.43-76.97,32.28-174.46,64.44Z"/>
        <path class="cls-11" d="M510.82,595.75c-60.86-82.67-107.83-151.41-104.92-153.56,2.91-2.15,54.61,63.13,115.47,145.8,60.86,82.67,107.83,151.42,104.92,153.57-2.91,2.14-54.6-63.13-115.47-145.8Z"/>
        <path class="cls-10" d="M292.26,595.75c60.86-82.67,107.83-151.41,104.92-153.56-2.91-2.15-54.61,63.13-115.47,145.8-60.86,82.67-107.83,151.42-104.92,153.57,2.91,2.14,54.6-63.13,115.47-145.8Z"/>
        <path class="cls-9" d="M206.42,378c97.98,30.63,178.27,52.66,179.35,49.21,1.08-3.45-77.47-31.08-175.45-61.71-97.98-30.63-178.28-52.66-179.36-49.2-1.08,3.45,77.47,31.08,175.45,61.71Z"/>
      </g>
    </g>
  </g>
</svg>